<svg xmlns="http://www.w3.org/2000/svg" xmlns:xlink="http://www.w3.org/1999/xlink" width="1800" zoomAndPan="magnify" viewBox="0 0 1350 449.999984" height="600" preserveAspectRatio="xMidYMid meet" version="1.0"><defs><g/><clipPath id="cfa9fd8134"><path d="M 456.519531 26 L 893.769531 26 L 893.769531 304 L 456.519531 304 Z M 456.519531 26 " clip-rule="nonzero"/></clipPath></defs><g fill="#93bd42" fill-opacity="1"><g transform="translate(278.851676, 411.31411)"><g><path d="M 36.609375 1.1875 C 30.890625 1.1875 25.796875 0.484375 21.328125 -0.921875 C 16.867188 -2.335938 13.148438 -4.191406 10.171875 -6.484375 C 7.191406 -8.785156 4.910156 -11.3125 3.328125 -14.0625 L 12.3125 -25.03125 L 13.734375 -25.03125 C 16.210938 -21.34375 19.363281 -18.40625 23.1875 -16.21875 C 27.019531 -14.03125 31.492188 -12.9375 36.609375 -12.9375 C 40.984375 -12.9375 44.28125 -13.859375 46.5 -15.703125 C 48.71875 -17.554688 49.828125 -20.097656 49.828125 -23.328125 C 49.828125 -25.296875 49.46875 -26.9375 48.75 -28.25 C 48.039062 -29.570312 46.859375 -30.703125 45.203125 -31.640625 C 43.546875 -32.578125 41.304688 -33.390625 38.484375 -34.078125 L 27.859375 -36.5 C 20.429688 -38.195312 14.898438 -41.015625 11.265625 -44.953125 C 7.628906 -48.890625 5.8125 -54 5.8125 -60.28125 C 5.8125 -64.957031 6.976562 -69.066406 9.3125 -72.609375 C 11.65625 -76.148438 15.054688 -78.898438 19.515625 -80.859375 C 23.984375 -82.816406 29.328125 -83.796875 35.546875 -83.796875 C 41.910156 -83.796875 47.359375 -82.957031 51.890625 -81.28125 C 56.429688 -79.601562 60.265625 -77.03125 63.390625 -73.5625 L 55.3125 -62.5 L 53.90625 -62.5 C 51.570312 -64.945312 48.894531 -66.78125 45.875 -68 C 42.863281 -69.226562 39.421875 -69.84375 35.546875 -69.84375 C 31.054688 -69.84375 27.644531 -69.050781 25.3125 -67.46875 C 22.976562 -65.882812 21.8125 -63.695312 21.8125 -60.90625 C 21.8125 -58.3125 22.628906 -56.238281 24.265625 -54.6875 C 25.898438 -53.144531 28.734375 -51.941406 32.765625 -51.078125 L 43.625 -48.8125 C 51.644531 -47.125 57.460938 -44.253906 61.078125 -40.203125 C 64.691406 -36.148438 66.5 -30.867188 66.5 -24.359375 C 66.5 -19.191406 65.390625 -14.695312 63.171875 -10.875 C 60.953125 -7.050781 57.597656 -4.082031 53.109375 -1.96875 C 48.628906 0.132812 43.128906 1.1875 36.609375 1.1875 Z M 36.609375 1.1875 "/></g></g></g><g fill="#93bd42" fill-opacity="1"><g transform="translate(349.823792, 411.31411)"><g><path d="M 36.21875 1.1875 C 30.113281 1.1875 24.753906 -0.0625 20.140625 -2.5625 C 15.523438 -5.070312 11.945312 -8.742188 9.40625 -13.578125 C 6.863281 -18.421875 5.59375 -24.273438 5.59375 -31.140625 C 5.59375 -37.992188 6.863281 -43.847656 9.40625 -48.703125 C 11.945312 -53.566406 15.523438 -57.25 20.140625 -59.75 C 24.753906 -62.257812 30.113281 -63.515625 36.21875 -63.515625 C 42.320312 -63.515625 47.679688 -62.257812 52.296875 -59.75 C 56.910156 -57.25 60.5 -53.566406 63.0625 -48.703125 C 65.625 -43.847656 66.90625 -37.992188 66.90625 -31.140625 C 66.90625 -24.273438 65.625 -18.421875 63.0625 -13.578125 C 60.5 -8.742188 56.910156 -5.070312 52.296875 -2.5625 C 47.679688 -0.0625 42.320312 1.1875 36.21875 1.1875 Z M 36.21875 -12.09375 C 45.894531 -12.09375 50.734375 -18.441406 50.734375 -31.140625 C 50.734375 -37.722656 49.488281 -42.550781 47 -45.625 C 44.519531 -48.695312 40.925781 -50.234375 36.21875 -50.234375 C 26.539062 -50.234375 21.703125 -43.867188 21.703125 -31.140625 C 21.703125 -18.441406 26.539062 -12.09375 36.21875 -12.09375 Z M 36.21875 -12.09375 "/></g></g></g><g fill="#93bd42" fill-opacity="1"><g transform="translate(422.265075, 411.31411)"><g><path d="M 8.984375 0 L 8.984375 -62.328125 L 24.015625 -62.328125 L 24.015625 -53.171875 L 25.203125 -52.890625 C 29.078125 -59.972656 35.367188 -63.515625 44.078125 -63.515625 C 51.265625 -63.515625 56.546875 -61.550781 59.921875 -57.625 C 63.296875 -53.707031 64.984375 -48.003906 64.984375 -40.515625 L 64.984375 0 L 49.328125 0 L 49.328125 -38.59375 C 49.328125 -42.738281 48.5 -45.722656 46.84375 -47.546875 C 45.1875 -49.367188 42.53125 -50.28125 38.875 -50.28125 C 34.394531 -50.28125 30.898438 -48.832031 28.390625 -45.9375 C 25.890625 -43.039062 24.640625 -38.484375 24.640625 -32.265625 L 24.640625 0 Z M 8.984375 0 "/></g></g></g><g fill="#93bd42" fill-opacity="1"><g transform="translate(495.271413, 411.31411)"><g><path d="M 8.984375 0 L 8.984375 -62.328125 L 24.1875 -62.328125 L 24.1875 -53.0625 L 25.375 -52.828125 C 26.875 -56.296875 28.847656 -58.835938 31.296875 -60.453125 C 33.742188 -62.078125 36.722656 -62.890625 40.234375 -62.890625 C 43.773438 -62.890625 46.46875 -62.285156 48.3125 -61.078125 L 45.65625 -47.578125 L 44.46875 -47.34375 C 43.445312 -47.757812 42.46875 -48.0625 41.53125 -48.25 C 40.59375 -48.4375 39.441406 -48.53125 38.078125 -48.53125 C 33.710938 -48.53125 30.378906 -46.992188 28.078125 -43.921875 C 25.785156 -40.859375 24.640625 -35.9375 24.640625 -29.15625 L 24.640625 0 Z M 8.984375 0 "/></g></g></g><g fill="#93bd42" fill-opacity="1"><g transform="translate(544.149507, 411.31411)"><g><path d="M 16.78125 -69.78125 C 13.957031 -69.78125 11.660156 -70.632812 9.890625 -72.34375 C 8.117188 -74.0625 7.234375 -76.273438 7.234375 -78.984375 C 7.234375 -81.660156 8.117188 -83.851562 9.890625 -85.5625 C 11.660156 -87.28125 13.957031 -88.140625 16.78125 -88.140625 C 18.664062 -88.140625 20.34375 -87.742188 21.8125 -86.953125 C 23.28125 -86.160156 24.414062 -85.078125 25.21875 -83.703125 C 26.03125 -82.328125 26.4375 -80.753906 26.4375 -78.984375 C 26.4375 -77.222656 26.03125 -75.644531 25.21875 -74.25 C 24.414062 -72.851562 23.28125 -71.757812 21.8125 -70.96875 C 20.34375 -70.175781 18.664062 -69.78125 16.78125 -69.78125 Z M 8.984375 0 L 8.984375 -62.328125 L 24.640625 -62.328125 L 24.640625 0 Z M 8.984375 0 "/></g></g></g><g fill="#93bd42" fill-opacity="1"><g transform="translate(577.714355, 411.31411)"><g><path d="M 29.15625 1.1875 C 24.894531 1.1875 20.992188 0.6875 17.453125 -0.3125 C 13.910156 -1.3125 10.890625 -2.6875 8.390625 -4.4375 C 5.890625 -6.1875 4.035156 -8.191406 2.828125 -10.453125 L 11.53125 -19.828125 L 12.71875 -19.828125 C 14.789062 -17.046875 17.238281 -14.957031 20.0625 -13.5625 C 22.882812 -12.164062 25.953125 -11.46875 29.265625 -11.46875 C 32.316406 -11.46875 34.613281 -12.015625 36.15625 -13.109375 C 37.707031 -14.203125 38.484375 -15.765625 38.484375 -17.796875 C 38.484375 -19.378906 37.925781 -20.707031 36.8125 -21.78125 C 35.695312 -22.851562 33.898438 -23.691406 31.421875 -24.296875 L 23.171875 -26.28125 C 16.992188 -27.75 12.484375 -30 9.640625 -33.03125 C 6.796875 -36.0625 5.375 -39.910156 5.375 -44.578125 C 5.375 -48.460938 6.359375 -51.832031 8.328125 -54.6875 C 10.304688 -57.550781 13.09375 -59.738281 16.6875 -61.25 C 20.289062 -62.757812 24.484375 -63.515625 29.265625 -63.515625 C 34.878906 -63.515625 39.53125 -62.703125 43.21875 -61.078125 C 46.914062 -59.460938 49.800781 -57.296875 51.875 -54.578125 L 43.5 -45.546875 L 42.375 -45.546875 C 40.644531 -47.503906 38.695312 -48.929688 36.53125 -49.828125 C 34.363281 -50.734375 31.941406 -51.1875 29.265625 -51.1875 C 23.085938 -51.1875 20 -49.265625 20 -45.421875 C 20 -43.804688 20.570312 -42.488281 21.71875 -41.46875 C 22.875 -40.457031 24.898438 -39.628906 27.796875 -38.984375 L 35.484375 -37.296875 C 41.816406 -35.941406 46.441406 -33.765625 49.359375 -30.765625 C 52.273438 -27.773438 53.734375 -23.753906 53.734375 -18.703125 C 53.734375 -14.742188 52.753906 -11.257812 50.796875 -8.25 C 48.835938 -5.238281 46.007812 -2.910156 42.3125 -1.265625 C 38.625 0.367188 34.238281 1.1875 29.15625 1.1875 Z M 29.15625 1.1875 "/></g></g></g><g fill="#93bd42" fill-opacity="1"><g transform="translate(635.18143, 411.31411)"><g><path d="M 24.296875 1.1875 C 20.304688 1.1875 16.84375 0.453125 13.90625 -1.015625 C 10.96875 -2.484375 8.707031 -4.640625 7.125 -7.484375 C 5.539062 -10.328125 4.75 -13.742188 4.75 -17.734375 C 4.75 -21.429688 5.539062 -24.53125 7.125 -27.03125 C 8.707031 -29.539062 11.15625 -31.59375 14.46875 -33.1875 C 17.78125 -34.789062 22.109375 -36.023438 27.453125 -36.890625 C 31.179688 -37.492188 34.015625 -38.15625 35.953125 -38.875 C 37.898438 -39.59375 39.210938 -40.398438 39.890625 -41.296875 C 40.566406 -42.203125 40.90625 -43.351562 40.90625 -44.75 C 40.90625 -46.75 40.207031 -48.273438 38.8125 -49.328125 C 37.425781 -50.378906 35.113281 -50.90625 31.875 -50.90625 C 28.40625 -50.90625 25.109375 -50.132812 21.984375 -48.59375 C 18.859375 -47.050781 16.144531 -45.015625 13.84375 -42.484375 L 12.71875 -42.484375 L 6.15625 -52.375 C 9.320312 -55.882812 13.179688 -58.617188 17.734375 -60.578125 C 22.296875 -62.535156 27.269531 -63.515625 32.65625 -63.515625 C 40.90625 -63.515625 46.875 -61.757812 50.5625 -58.25 C 54.257812 -54.75 56.109375 -49.78125 56.109375 -43.34375 L 56.109375 -16.265625 C 56.109375 -13.484375 57.332031 -12.09375 59.78125 -12.09375 C 60.71875 -12.09375 61.640625 -12.257812 62.546875 -12.59375 L 63.34375 -12.375 L 64.46875 -1.46875 C 63.601562 -0.90625 62.394531 -0.441406 60.84375 -0.078125 C 59.300781 0.273438 57.609375 0.453125 55.765625 0.453125 C 52.035156 0.453125 49.125 -0.257812 47.03125 -1.6875 C 44.945312 -3.125 43.453125 -5.367188 42.546875 -8.421875 L 41.359375 -8.53125 C 38.304688 -2.050781 32.617188 1.1875 24.296875 1.1875 Z M 29.265625 -10.515625 C 32.878906 -10.515625 35.769531 -11.726562 37.9375 -14.15625 C 40.101562 -16.582031 41.1875 -19.960938 41.1875 -24.296875 L 41.1875 -30.625 L 40.125 -30.84375 C 39.175781 -30.09375 37.9375 -29.460938 36.40625 -28.953125 C 34.882812 -28.441406 32.691406 -27.941406 29.828125 -27.453125 C 26.441406 -26.890625 24.003906 -25.921875 22.515625 -24.546875 C 21.023438 -23.171875 20.28125 -21.222656 20.28125 -18.703125 C 20.28125 -16.023438 21.070312 -13.988281 22.65625 -12.59375 C 24.238281 -11.207031 26.441406 -10.515625 29.265625 -10.515625 Z M 29.265625 -10.515625 "/></g></g></g><g fill="#00a9bc" fill-opacity="1"><g transform="translate(700.90248, 411.31411)"><g><path d="M 40.453125 -82.609375 C 53.867188 -82.609375 64.109375 -79.140625 71.171875 -72.203125 C 78.234375 -65.273438 81.765625 -54.972656 81.765625 -41.296875 C 81.765625 -27.660156 78.234375 -17.367188 71.171875 -10.421875 C 64.109375 -3.472656 53.867188 0 40.453125 0 L 10.734375 0 L 10.734375 -82.609375 Z M 39.5 -13.734375 C 48.007812 -13.734375 54.375 -15.90625 58.59375 -20.25 C 62.8125 -24.601562 64.921875 -31.617188 64.921875 -41.296875 C 64.921875 -50.984375 62.8125 -58 58.59375 -62.34375 C 54.375 -66.695312 48.007812 -68.875 39.5 -68.875 L 27.0625 -68.875 L 27.0625 -13.734375 Z M 39.5 -13.734375 "/></g></g></g><g fill="#00a9bc" fill-opacity="1"><g transform="translate(789.222083, 411.31411)"><g><path d="M 16.78125 -69.78125 C 13.957031 -69.78125 11.660156 -70.632812 9.890625 -72.34375 C 8.117188 -74.0625 7.234375 -76.273438 7.234375 -78.984375 C 7.234375 -81.660156 8.117188 -83.851562 9.890625 -85.5625 C 11.660156 -87.28125 13.957031 -88.140625 16.78125 -88.140625 C 18.664062 -88.140625 20.34375 -87.742188 21.8125 -86.953125 C 23.28125 -86.160156 24.414062 -85.078125 25.21875 -83.703125 C 26.03125 -82.328125 26.4375 -80.753906 26.4375 -78.984375 C 26.4375 -77.222656 26.03125 -75.644531 25.21875 -74.25 C 24.414062 -72.851562 23.28125 -71.757812 21.8125 -70.96875 C 20.34375 -70.175781 18.664062 -69.78125 16.78125 -69.78125 Z M 8.984375 0 L 8.984375 -62.328125 L 24.640625 -62.328125 L 24.640625 0 Z M 8.984375 0 "/></g></g></g><g fill="#00a9bc" fill-opacity="1"><g transform="translate(822.786921, 411.31411)"><g><path d="M 32.3125 26.4375 C 22.03125 26.4375 14.441406 24.929688 9.546875 21.921875 C 4.648438 18.910156 2.203125 14.710938 2.203125 9.328125 C 2.203125 6.046875 3.242188 3.359375 5.328125 1.265625 C 7.421875 -0.816406 10.429688 -2.21875 14.359375 -2.9375 L 14.359375 -4.125 C 12.242188 -5.40625 10.722656 -6.828125 9.796875 -8.390625 C 8.878906 -9.953125 8.421875 -11.769531 8.421875 -13.84375 C 8.421875 -18.851562 11.675781 -22.222656 18.1875 -23.953125 L 18.1875 -25.140625 C 14.84375 -27.066406 12.320312 -29.453125 10.625 -32.296875 C 8.925781 -35.140625 8.078125 -38.578125 8.078125 -42.609375 C 8.078125 -46.742188 9.023438 -50.382812 10.921875 -53.53125 C 12.828125 -56.675781 15.617188 -59.125 19.296875 -60.875 C 22.972656 -62.632812 27.367188 -63.515625 32.484375 -63.515625 C 37.679688 -63.515625 41.828125 -62.609375 44.921875 -60.796875 C 46.835938 -63.585938 47.945312 -66.804688 48.25 -70.453125 L 49.4375 -71.1875 L 60.6875 -68.421875 C 60.34375 -65.453125 59.472656 -62.957031 58.078125 -60.9375 C 56.691406 -58.925781 54.53125 -57.128906 51.59375 -55.546875 L 51.59375 -54.296875 C 55.09375 -51.210938 56.84375 -46.898438 56.84375 -41.359375 C 56.84375 -37.515625 55.878906 -34.066406 53.953125 -31.015625 C 52.035156 -27.960938 49.238281 -25.550781 45.5625 -23.78125 C 41.894531 -22.007812 37.535156 -21.125 32.484375 -21.125 L 30.109375 -21.1875 C 28.609375 -21.257812 27.554688 -21.296875 26.953125 -21.296875 C 25.523438 -21.296875 24.40625 -20.910156 23.59375 -20.140625 C 22.78125 -19.367188 22.375 -18.378906 22.375 -17.171875 C 22.375 -15.859375 22.898438 -14.832031 23.953125 -14.09375 C 25.015625 -13.363281 26.5625 -12.957031 28.59375 -12.875 L 42.546875 -12.375 C 56.335938 -11.957031 63.234375 -6.023438 63.234375 5.421875 C 63.234375 9.453125 62.203125 13.039062 60.140625 16.1875 C 58.085938 19.332031 54.765625 21.828125 50.171875 23.671875 C 45.578125 25.515625 39.625 26.4375 32.3125 26.4375 Z M 32.484375 -32.09375 C 35.503906 -32.09375 37.859375 -32.976562 39.546875 -34.75 C 41.242188 -36.519531 42.09375 -39.046875 42.09375 -42.328125 C 42.09375 -45.597656 41.242188 -48.109375 39.546875 -49.859375 C 37.859375 -51.609375 35.503906 -52.484375 32.484375 -52.484375 C 29.429688 -52.484375 27.078125 -51.609375 25.421875 -49.859375 C 23.765625 -48.109375 22.9375 -45.597656 22.9375 -42.328125 C 22.9375 -39.003906 23.765625 -36.46875 25.421875 -34.71875 C 27.078125 -32.96875 29.429688 -32.09375 32.484375 -32.09375 Z M 32.3125 15.09375 C 37.664062 15.09375 41.554688 14.335938 43.984375 12.828125 C 46.410156 11.316406 47.625 9.359375 47.625 6.953125 C 47.625 4.992188 47.003906 3.550781 45.765625 2.625 C 44.523438 1.707031 42.546875 1.207031 39.828125 1.125 L 27.515625 0.5625 C 27.097656 0.5625 26.710938 0.539062 26.359375 0.5 C 26.003906 0.46875 25.65625 0.453125 25.3125 0.453125 C 22.675781 0.453125 20.671875 1.015625 19.296875 2.140625 C 17.921875 3.273438 17.234375 4.84375 17.234375 6.84375 C 17.234375 9.476562 18.492188 11.507812 21.015625 12.9375 C 23.546875 14.375 27.3125 15.09375 32.3125 15.09375 Z M 32.3125 15.09375 "/></g></g></g><g fill="#00a9bc" fill-opacity="1"><g transform="translate(887.599827, 411.31411)"><g><path d="M 16.78125 -69.78125 C 13.957031 -69.78125 11.660156 -70.632812 9.890625 -72.34375 C 8.117188 -74.0625 7.234375 -76.273438 7.234375 -78.984375 C 7.234375 -81.660156 8.117188 -83.851562 9.890625 -85.5625 C 11.660156 -87.28125 13.957031 -88.140625 16.78125 -88.140625 C 18.664062 -88.140625 20.34375 -87.742188 21.8125 -86.953125 C 23.28125 -86.160156 24.414062 -85.078125 25.21875 -83.703125 C 26.03125 -82.328125 26.4375 -80.753906 26.4375 -78.984375 C 26.4375 -77.222656 26.03125 -75.644531 25.21875 -74.25 C 24.414062 -72.851562 23.28125 -71.757812 21.8125 -70.96875 C 20.34375 -70.175781 18.664062 -69.78125 16.78125 -69.78125 Z M 8.984375 0 L 8.984375 -62.328125 L 24.640625 -62.328125 L 24.640625 0 Z M 8.984375 0 "/></g></g></g><g fill="#00a9bc" fill-opacity="1"><g transform="translate(921.164675, 411.31411)"><g><path d="M 43 -14.859375 L 47.0625 -3.28125 C 45.375 -1.882812 43.25 -0.789062 40.6875 0 C 38.125 0.789062 35.222656 1.1875 31.984375 1.1875 C 25.234375 1.1875 20.109375 -0.644531 16.609375 -4.3125 C 13.109375 -7.988281 11.359375 -13.332031 11.359375 -20.34375 L 11.359375 -49.953125 L 1.859375 -49.953125 L 1.859375 -62.375 L 11.359375 -62.375 L 11.359375 -74.53125 L 27.015625 -77.078125 L 27.015625 -62.375 L 44.6875 -62.375 L 44.6875 -49.953125 L 27.015625 -49.953125 L 27.015625 -21.46875 C 27.015625 -18.382812 27.648438 -16.132812 28.921875 -14.71875 C 30.203125 -13.300781 32.070312 -12.59375 34.53125 -12.59375 C 37.3125 -12.59375 39.738281 -13.347656 41.8125 -14.859375 Z M 43 -14.859375 "/></g></g></g><g fill="#00a9bc" fill-opacity="1"><g transform="translate(969.590717, 411.31411)"><g><path d="M 24.296875 1.1875 C 20.304688 1.1875 16.84375 0.453125 13.90625 -1.015625 C 10.96875 -2.484375 8.707031 -4.640625 7.125 -7.484375 C 5.539062 -10.328125 4.75 -13.742188 4.75 -17.734375 C 4.75 -21.429688 5.539062 -24.53125 7.125 -27.03125 C 8.707031 -29.539062 11.15625 -31.59375 14.46875 -33.1875 C 17.78125 -34.789062 22.109375 -36.023438 27.453125 -36.890625 C 31.179688 -37.492188 34.015625 -38.15625 35.953125 -38.875 C 37.898438 -39.59375 39.210938 -40.398438 39.890625 -41.296875 C 40.566406 -42.203125 40.90625 -43.351562 40.90625 -44.75 C 40.90625 -46.75 40.207031 -48.273438 38.8125 -49.328125 C 37.425781 -50.378906 35.113281 -50.90625 31.875 -50.90625 C 28.40625 -50.90625 25.109375 -50.132812 21.984375 -48.59375 C 18.859375 -47.050781 16.144531 -45.015625 13.84375 -42.484375 L 12.71875 -42.484375 L 6.15625 -52.375 C 9.320312 -55.882812 13.179688 -58.617188 17.734375 -60.578125 C 22.296875 -62.535156 27.269531 -63.515625 32.65625 -63.515625 C 40.90625 -63.515625 46.875 -61.757812 50.5625 -58.25 C 54.257812 -54.75 56.109375 -49.78125 56.109375 -43.34375 L 56.109375 -16.265625 C 56.109375 -13.484375 57.332031 -12.09375 59.78125 -12.09375 C 60.71875 -12.09375 61.640625 -12.257812 62.546875 -12.59375 L 63.34375 -12.375 L 64.46875 -1.46875 C 63.601562 -0.90625 62.394531 -0.441406 60.84375 -0.078125 C 59.300781 0.273438 57.609375 0.453125 55.765625 0.453125 C 52.035156 0.453125 49.125 -0.257812 47.03125 -1.6875 C 44.945312 -3.125 43.453125 -5.367188 42.546875 -8.421875 L 41.359375 -8.53125 C 38.304688 -2.050781 32.617188 1.1875 24.296875 1.1875 Z M 29.265625 -10.515625 C 32.878906 -10.515625 35.769531 -11.726562 37.9375 -14.15625 C 40.101562 -16.582031 41.1875 -19.960938 41.1875 -24.296875 L 41.1875 -30.625 L 40.125 -30.84375 C 39.175781 -30.09375 37.9375 -29.460938 36.40625 -28.953125 C 34.882812 -28.441406 32.691406 -27.941406 29.828125 -27.453125 C 26.441406 -26.890625 24.003906 -25.921875 22.515625 -24.546875 C 21.023438 -23.171875 20.28125 -21.222656 20.28125 -18.703125 C 20.28125 -16.023438 21.070312 -13.988281 22.65625 -12.59375 C 24.238281 -11.207031 26.441406 -10.515625 29.265625 -10.515625 Z M 29.265625 -10.515625 "/></g></g></g><g fill="#00a9bc" fill-opacity="1"><g transform="translate(1035.307746, 411.31411)"><g><path d="M 25.875 1.1875 C 20.257812 1.1875 15.972656 -0.328125 13.015625 -3.359375 C 10.066406 -6.390625 8.59375 -10.992188 8.59375 -17.171875 L 8.59375 -87.359375 L 24.234375 -87.359375 L 24.234375 -17.796875 C 24.234375 -13.992188 25.816406 -12.09375 28.984375 -12.09375 C 29.890625 -12.09375 30.851562 -12.242188 31.875 -12.546875 L 32.65625 -12.3125 L 34.078125 -0.28125 C 33.203125 0.164062 32.050781 0.519531 30.625 0.78125 C 29.195312 1.050781 27.613281 1.1875 25.875 1.1875 Z M 25.875 1.1875 "/></g></g></g><g clip-path="url(#cfa9fd8134)"><path fill="#00a9bc" d="M 851 97.582031 C 841.503906 106.394531 830.925781 115.289062 819.394531 123.789062 C 819.660156 118.765625 819.703125 113.917969 819.527344 109.292969 C 818.929688 93.113281 815.496094 77.019531 808.257812 64.425781 C 794.957031 45.214844 778.488281 33.460938 758.855469 29.144531 C 736.789062 24.472656 715.738281 27.085938 695.707031 36.980469 C 693.359375 37.84375 688.867188 39.039062 682.226562 40.566406 C 672.175781 42.578125 661.175781 40.898438 649.246094 35.5625 C 631.339844 27.128906 608.1875 25.976562 589.082031 31.046875 C 562.65625 38.0625 543.355469 55.570312 535.9375 82.664062 C 531.777344 96.519531 529.941406 111.085938 530.382812 126.402344 C 538.441406 131.074219 546.695312 135.457031 555.152344 139.460938 C 552.296875 116.132812 553.78125 96.566406 559.601562 80.78125 C 567.304688 58.425781 584.613281 47.203125 611.507812 47.117188 C 629.546875 49.019531 641.832031 52.914062 648.382812 58.78125 C 651.390625 61.480469 650.328125 66.726562 645.171875 74.476562 C 640.238281 79.984375 639.527344 84.367188 643.070312 87.667969 C 645.59375 90.632812 649.644531 89.726562 655.222656 84.898438 C 677.910156 69.40625 700.109375 57.828125 721.78125 50.214844 C 746.769531 42.710938 767.710938 48.644531 784.574219 68.035156 C 799.296875 85.941406 802.460938 111.304688 798.585938 138.046875 C 764.058594 159.78125 722.976562 176.78125 678.132812 179.855469 C 633.996094 182.867188 591.871094 172.019531 555.304688 155.621094 C 554.398438 155.222656 553.492188 154.800781 552.605469 154.378906 L 552.585938 154.359375 C 550.792969 153.539062 549 152.699219 547.226562 151.835938 L 547.183594 151.8125 C 546.296875 151.390625 545.433594 150.972656 544.570312 150.527344 L 544.503906 150.507812 C 542.757812 149.644531 541.007812 148.757812 539.28125 147.871094 L 539.238281 147.851562 C 538.375 147.40625 537.511719 146.964844 536.648438 146.523438 L 536.601562 146.5 C 521.949219 138.820312 508.402344 130.386719 496.273438 121.863281 C 502.691406 110.089844 503.335938 96.875 498.398438 87.003906 C 500.148438 98.09375 496.695312 111.636719 488.0625 123.523438 C 479.429688 135.390625 467.609375 142.871094 456.519531 144.640625 C 469.070312 146.523438 483.546875 140.058594 492.976562 127.089844 L 492.910156 127.175781 C 504.707031 141.675781 519.359375 155.222656 536.136719 166.929688 C 545.65625 208.144531 566.042969 258.28125 589.195312 284.6875 C 598.179688 296.371094 608.363281 302.480469 619.738281 303.035156 C 628.683594 302.945312 634.792969 298.253906 638.089844 288.914062 C 642.671875 273.949219 648.359375 257.769531 655.15625 240.394531 C 661.066406 228.464844 667.816406 222.777344 675.429688 223.328125 C 686.253906 223.507812 695.109375 235.125 701.992188 258.234375 C 704.605469 267.90625 708.324219 278.777344 713.148438 290.839844 C 722.355469 311.160156 747.035156 304.1875 762.550781 282.25 C 783.535156 256.6875 802.152344 213.214844 812.066406 171.621094 C 803.566406 178.242188 794.648438 184.304688 785.351562 189.773438 C 776.917969 214.1875 766.335938 236.785156 758.28125 252.988281 C 754.074219 261.800781 748.539062 269.988281 741.703125 277.515625 C 734.929688 284.023438 730.257812 282.714844 727.667969 273.617188 C 720.1875 248.9375 715.007812 234.261719 712.128906 229.59375 C 705.601562 218.261719 697.851562 210.800781 688.886719 207.191406 C 737.71875 201.859375 781.035156 180.035156 813.859375 150.992188 C 814.414062 150.507812 814.988281 149.996094 815.5625 149.464844 L 815.71875 149.332031 C 816.050781 149.046875 816.359375 148.757812 816.691406 148.449219 C 832.097656 134.347656 845.070312 118.65625 855.050781 102.386719 L 854.984375 102.296875 C 866.074219 113.851562 881.304688 118.277344 893.476562 114.714844 C 882.253906 114.472656 869.527344 108.695312 859.347656 98.09375 C 849.1875 87.511719 843.894531 74.5625 844.117188 63.320312 C 840.621094 73.789062 843.03125 86.78125 851 97.582031 Z M 563.871094 183.554688 C 591.761719 197.765625 623.613281 206.972656 657.28125 208.300781 C 648.890625 212.96875 641.609375 222.289062 635.390625 236.277344 C 630.164062 248.429688 625.804688 261.953125 622.308594 276.828125 C 619.652344 286.367188 614.429688 286.058594 606.660156 275.921875 C 587.070312 245.574219 572.859375 216.046875 563.871094 183.554688 Z M 563.871094 183.554688 " fill-opacity="1" fill-rule="evenodd"/></g></svg>